<svg width="181" height="102" viewBox="0 0 181 102" fill="none" xmlns="http://www.w3.org/2000/svg">
<g clip-path="url(#clip0)">
<path d="M83.8776 74.2958C83.5297 74.2806 83.4718 73.9615 83.3331 73.7615C82.0323 71.9181 80.7719 70.0418 79.4434 68.2186C71.916 57.9001 63.8895 48.0121 54.6151 39.1951C49.9263 34.7385 44.8189 30.9175 38.8646 28.3246C33.6312 26.0457 28.1785 24.6049 22.5166 23.8731C16.4614 23.0932 10.4138 22.8121 4.35862 23.7794C2.90659 24.0149 1.44699 24.2529 0 24.7366C0.194109 25.0278 0.327716 25.2405 0.476448 25.443C4.93591 31.586 9.40292 37.7214 13.8548 43.8695C24.2711 58.247 34.7782 72.5587 45.4139 86.7717C48.8397 91.3473 52.9009 95.2138 58.0183 97.8549C62.5156 100.177 67.3053 101.463 72.337 101.787C74.9587 101.954 77.593 102 80.1744 101.329C83.9482 100.349 87.0439 98.2372 89.711 95.4569C90.2933 94.8492 90.5857 94.8239 91.1857 95.4569C94.299 98.7361 97.9618 101.086 102.515 101.742C105.893 102.228 109.278 101.975 112.616 101.387C121.053 99.8983 128.076 95.8621 133.582 89.2532C137.275 84.8168 140.583 80.0792 144.016 75.4428C155.085 60.4905 166.049 45.4622 176.954 30.3908C178.293 28.5398 179.629 26.6863 181.003 24.7872C177.478 23.8604 173.992 23.3439 170.463 23.2223C165.411 23.0476 160.392 23.5287 155.418 24.3846C144.208 26.3166 134.55 31.2898 126.337 39.2306C116.707 48.5413 108.275 58.8522 100.485 69.7227C99.3836 71.2597 98.3148 72.8221 97.0745 74.5971C97.0745 74.1185 97.0795 73.9134 97.0745 73.7058C96.8627 65.3269 97.1501 56.9581 97.6971 48.5995C97.8585 46.1281 98.0425 43.6492 98.5568 41.2158C99.5651 36.4224 101.519 32.0038 103.901 27.7599C107.181 21.9183 112.253 18.624 118.704 17.2895C120.231 16.973 121.774 16.9249 123.559 16.892C119.861 13.5217 115.744 12.3569 111.01 13.0026C114.494 9.30564 116.495 5.01112 116.967 0C116.876 0.0101286 116.798 -0.00253215 116.76 0.0303858C116.5 0.258279 116.246 0.488705 115.999 0.731791C113.009 3.66655 109.553 5.8518 105.651 7.35336C104.584 7.76357 103.636 7.98386 102.598 7.24954C102.083 6.88744 101.398 6.73551 100.77 6.57093C96.3913 5.43399 92.0907 5.92016 87.8808 7.36602C79.8921 10.1083 76.0755 17.6567 78.6165 25.5924C79.9249 29.6793 80.8551 33.865 81.6164 38.0759C82.6928 44.0417 83.3281 50.0707 83.6936 56.1225C84.0566 62.1642 84.0213 68.211 83.8776 74.2958Z" fill="#FCFCFE"/>
<path d="M83.8776 74.2963C84.0213 68.2115 84.0566 62.1648 83.6936 56.1256C83.3306 50.0738 82.6953 44.0447 81.6164 38.079C80.8551 33.868 79.9249 29.6824 78.6165 25.5955C76.0755 17.6597 79.8921 10.1114 87.8808 7.36907C92.0907 5.92321 96.3913 5.43704 100.77 6.57398C101.4 6.73603 102.083 6.88796 102.598 7.25259C103.636 7.98692 104.584 7.76409 105.651 7.35641C109.555 5.85485 113.012 3.6696 115.999 0.734843C116.246 0.494289 116.5 0.261331 116.76 0.0334375C116.798 0.00051961 116.876 0.0157125 116.967 0.00305176C116.493 5.01417 114.494 9.3087 111.005 13.0107C115.742 12.365 119.856 13.5298 123.554 16.9001C121.769 16.933 120.226 16.9811 118.699 17.2976C112.245 18.6346 107.176 21.9264 103.896 27.7681C101.514 32.0094 99.5626 36.4305 98.5517 41.2239C98.04 43.6573 97.856 46.1363 97.6921 48.6076C97.1451 56.9663 96.8577 65.335 97.0694 73.7139C97.0745 73.919 97.0694 74.1266 97.0694 74.6052C98.3097 72.8302 99.3786 71.2678 100.48 69.7308C108.27 58.8603 116.702 48.5469 126.332 39.2387C134.545 31.2979 144.203 26.3247 155.413 24.3927C160.387 23.5343 165.406 23.0557 170.458 23.2304C173.989 23.352 177.473 23.8685 180.997 24.7953C179.626 26.6944 178.29 28.548 176.949 30.399C166.044 45.4703 155.08 60.4986 144.011 75.4509C140.578 80.0873 137.27 84.825 133.577 89.2613C128.074 95.8702 121.048 99.9064 112.611 101.395C109.273 101.985 105.89 102.236 102.51 101.75C97.9593 101.094 94.2939 98.7442 91.1806 95.465C90.5807 94.832 90.2882 94.8548 89.7059 95.465C87.0388 98.2453 83.9432 100.357 80.1694 101.337C77.588 102.008 74.9537 101.963 72.3319 101.795C67.3002 101.471 62.5105 100.188 58.0133 97.863C52.8959 95.2194 48.8347 91.3554 45.4088 86.7798C34.7707 72.5668 24.2636 58.2551 13.8498 43.8776C9.39788 37.7295 4.93086 31.5941 0.471407 25.4511C0.327716 25.241 0.194109 25.0283 0 24.7371C1.44699 24.2534 2.90659 24.0154 4.35862 23.7825C10.4138 22.8152 16.4614 23.0937 22.5166 23.8761C28.1785 24.6054 33.6312 26.0487 38.8646 28.3277C44.8189 30.9206 49.9263 34.7416 54.6151 39.1982C63.8895 48.0151 71.916 57.9006 79.4434 68.2217C80.7744 70.0448 82.0323 71.9186 83.3331 73.7645C83.4743 73.962 83.5297 74.2811 83.8776 74.2963ZM31.7254 45.3386C29.9255 46.2046 28.3147 47.3694 26.7341 48.5747C26.4391 48.8001 26.2626 48.9849 26.5702 49.3901C28.3071 51.669 30.0137 53.9707 31.7305 56.2674C33.2279 58.4906 34.8488 60.6227 36.4975 62.732C38.615 65.6211 40.7351 68.5103 42.8526 71.3995C44.4156 73.7215 46.0416 75.9954 47.7583 78.2059C49.7095 80.971 51.7766 83.6475 53.9899 86.2075C55.4974 88.1978 57.0453 90.1501 58.8729 91.8618C60.7636 93.9458 62.8483 95.7968 65.2306 97.2983C66.723 98.4504 68.3237 99.4025 70.1539 99.914C72.2336 100.699 74.3134 100.747 76.3931 99.9115C78.3039 99.2557 79.8392 98.0276 81.2887 96.6678C83.255 95.0396 84.886 93.1 86.4237 91.0743C86.6481 90.778 86.6859 90.5704 86.4262 90.2665C84.5809 88.0965 82.9298 85.777 81.2937 83.4475C79.7862 80.966 78.1199 78.5933 76.4107 76.2486C74.4344 73.2429 72.3571 70.3082 70.1816 67.4443C68.6338 65.2768 67.033 63.1498 65.2785 61.1443C63.2668 58.5438 61.172 56.0116 58.9183 53.6188C57.4284 51.7146 55.7621 49.9699 54.058 48.2607C53.5841 47.7619 53.1354 47.2327 52.6287 46.7693C51.1111 45.3817 49.7977 43.7333 47.8011 42.9584C46.2306 42.2342 44.5794 42.0038 42.8678 42.1177C40.6645 42.1127 38.5696 42.6647 36.505 43.3661C34.816 43.789 33.238 44.4828 31.7254 45.3386ZM149.406 56.0901C151.077 53.8618 152.746 51.631 154.425 49.4078C154.657 49.1014 154.677 48.9014 154.344 48.6406C152.789 47.4302 151.211 46.2603 149.408 45.4374C147.848 44.5056 146.217 43.7484 144.422 43.399C142.403 42.5862 140.31 42.1329 138.127 42.1253C136.468 41.9759 134.875 42.2469 133.34 42.8825C130.67 44.0245 128.961 46.311 126.967 48.2607C125.218 49.9396 123.592 51.7298 122.074 53.6213C119.881 55.9863 117.814 58.4552 115.83 60.9974C114.068 63.0586 112.414 65.2084 110.844 67.419C108.671 70.3031 106.566 73.2353 104.592 76.2612C102.878 78.606 101.236 80.9989 99.7013 83.4677C98.0753 85.7922 96.4417 88.1091 94.5889 90.2615C94.3469 90.5425 94.3519 90.7882 94.5838 91.092C96.1266 93.1025 97.7324 95.0523 99.7038 96.6653C101.171 98.0048 102.678 99.2886 104.614 99.914C106.732 100.795 108.847 100.674 110.96 99.9039C112.772 99.3544 114.37 98.3973 115.875 97.2705C118.192 95.7841 120.209 93.9432 122.107 91.9606C123.884 90.1602 125.543 88.256 127.018 86.1948C129.307 83.6121 131.376 80.8596 133.38 78.0515C135.037 75.8839 136.652 73.6835 138.155 71.402C140.272 68.5103 142.39 65.6161 144.508 62.7244C146.232 60.5796 147.863 58.3691 149.406 56.0901ZM106.205 22.2277C101.947 22.2556 97.8459 22.1948 93.7545 22.5544C92.0781 22.7012 90.4067 22.8734 88.7908 23.4001C87.4573 23.8356 86.7237 24.6991 86.6582 26.1475C86.5699 28.082 87.2833 29.7634 88.2136 31.3738C90.1723 34.7669 92.8822 37.5042 95.8241 40.0287C97.082 41.1074 97.0896 41.0948 97.5484 39.4995C99.3433 33.2578 101.899 27.4034 106.205 22.2277ZM111 13.0765C110.977 13.0563 110.955 13.0183 110.937 13.0208C110.894 13.0284 110.856 13.0537 110.816 13.0715C110.836 13.0917 110.859 13.1297 110.874 13.1272C110.917 13.1221 110.955 13.0968 111 13.0765Z" fill="#0F0F38"/>
<path d="M58.9232 53.6183C61.1769 56.0137 63.2692 58.5433 65.2834 61.1438C65.2759 71.4345 65.2708 81.7226 65.2607 92.0133C65.2582 93.7756 65.2406 95.5355 65.2305 97.2978C62.8483 95.7963 60.761 93.9453 58.8728 91.8613C58.8804 85.2524 58.8904 78.641 58.9005 72.0321C58.9056 65.8941 58.9157 59.7562 58.9232 53.6183Z" fill="#FCFCFE"/>
<path d="M126.97 48.2627C128.961 46.3129 130.673 44.0264 133.343 42.8844C133.348 51.3696 133.348 59.8549 133.355 68.3401C133.358 71.5762 133.373 74.8123 133.383 78.0484C131.379 80.8565 129.309 83.609 127.02 86.1918C127.01 83.5811 126.995 80.9705 126.992 78.3623C126.982 68.33 126.977 58.2951 126.97 48.2627Z" fill="#FCFCFE"/>
<path d="M115.83 60.9994C117.814 58.4572 119.884 55.9883 122.074 53.6233C122.084 54.031 122.102 54.4412 122.102 54.8489C122.104 67.2184 122.104 79.588 122.107 91.9575C120.209 93.9402 118.192 95.7811 115.875 97.2674C115.868 96.7964 115.85 96.3229 115.85 95.852C115.845 84.2345 115.838 72.6169 115.83 60.9994Z" fill="#FCFCFE"/>
<path d="M53.9899 86.2071C51.7766 83.6471 49.7095 80.9706 47.7583 78.2055C47.7659 70.918 47.7684 63.6279 47.7785 56.3404C47.7835 51.8788 47.7961 47.4197 47.8037 42.958C49.8002 43.7328 51.1161 45.3838 52.6312 46.7689C53.1379 47.2323 53.5866 47.7615 54.0605 48.2603C54.0479 48.7009 54.0252 49.1415 54.0252 49.5796C54.0227 61.349 54.0252 73.1184 54.0227 84.8879C54.0252 85.3284 54 85.769 53.9899 86.2071Z" fill="#FCFCFE"/>
<path d="M106.205 22.2272C101.9 27.4004 99.3433 33.2572 97.551 39.4964C97.0922 41.0942 97.0846 41.1043 95.8267 40.0256C92.8823 37.5036 90.1748 34.7638 88.2161 31.3708C87.2859 29.7603 86.5725 28.079 86.6607 26.1444C86.7262 24.696 87.4598 23.8326 88.7934 23.397C90.4068 22.8703 92.0781 22.6982 93.757 22.5513C97.8459 22.1943 101.947 22.2576 106.205 22.2272Z" fill="#FCFCFE"/>
<path d="M53.9899 86.2069C54.0025 85.7663 54.0252 85.3257 54.0252 84.8877C54.0277 73.1182 54.0252 61.3488 54.0277 49.5794C54.0277 49.1388 54.0504 48.6982 54.063 48.2601C55.7671 49.9693 57.4334 51.7115 58.9233 53.6182C58.9157 59.7561 58.9056 65.894 58.898 72.0319C58.888 78.6408 58.8804 85.2523 58.8703 91.8612C57.0452 90.1495 55.4948 88.1972 53.9899 86.2069Z" fill="#009A9C"/>
<path d="M122.107 91.96C122.107 79.5904 122.104 67.2209 122.102 54.8513C122.102 54.4437 122.084 54.0335 122.074 53.6258C123.592 51.7343 125.218 49.944 126.967 48.2627C126.975 58.2951 126.98 68.33 126.99 78.3623C126.992 80.973 127.008 83.5836 127.018 86.1917C125.545 88.2554 123.887 90.1571 122.107 91.96Z" fill="#009A9C"/>
<path d="M110.962 99.9034C108.847 100.673 106.732 100.795 104.617 99.9135C104.609 92.031 104.602 84.1459 104.594 76.2633C106.568 73.2374 108.673 70.3051 110.846 67.421C111.025 67.6388 110.97 67.8996 110.97 68.1452C110.967 78.7321 110.965 89.3165 110.962 99.9034Z" fill="#FCFCFE"/>
<path d="M70.1842 67.4463C72.3597 70.3101 74.4344 73.2449 76.4133 76.2506C76.4058 84.1382 76.3982 92.0258 76.3932 99.9135C74.3134 100.749 72.2337 100.698 70.154 99.916C70.154 92.8361 70.1514 85.7563 70.1565 78.6789C70.159 74.9339 70.1741 71.1888 70.1842 67.4463Z" fill="#FCFCFE"/>
<path d="M110.962 99.9033C110.965 89.3164 110.97 78.732 110.97 68.1451C110.97 67.8995 111.025 67.6387 110.846 67.4209C112.417 65.2078 114.07 63.0606 115.833 60.9994C115.84 72.6169 115.845 84.2344 115.853 95.8519C115.853 96.3229 115.868 96.7964 115.878 97.2674C114.37 98.3967 112.775 99.3538 110.962 99.9033Z" fill="#009A9C"/>
<path d="M70.1841 67.4463C70.1741 71.1914 70.1589 74.9339 70.1564 78.679C70.1514 85.7589 70.1539 92.8387 70.1539 99.9161C68.3237 99.4021 66.723 98.4525 65.2306 97.3004C65.2407 95.538 65.2583 93.7782 65.2608 92.0158C65.2709 81.7251 65.2785 71.437 65.2835 61.1464C67.0381 63.1493 68.6363 65.2763 70.1841 67.4463Z" fill="#009A9C"/>
<path d="M47.8037 42.9579C47.7936 47.4196 47.7835 51.8787 47.7785 56.3404C47.7709 63.6279 47.7659 70.9179 47.7583 78.2055C46.0416 75.9949 44.4156 73.721 42.8527 71.399C42.8577 61.6376 42.8653 51.8762 42.8703 42.1173C44.582 42.0033 46.2357 42.2312 47.8037 42.9579Z" fill="#009A9C"/>
<path d="M144.508 62.7212C142.39 65.6129 140.273 68.5071 138.155 71.3988C138.145 71.2418 138.125 71.0848 138.125 70.9279C138.125 61.3285 138.127 51.7266 138.13 42.1272C140.31 42.1348 142.403 42.588 144.424 43.4009C144.445 43.7756 144.477 44.1504 144.48 44.5277C144.493 50.5922 144.5 56.6567 144.508 62.7212Z" fill="#FCFCFE"/>
<path d="M42.8702 42.1148C42.8652 51.8762 42.8576 61.6376 42.8526 71.3965C40.7325 68.5073 38.6149 65.6182 36.4949 62.729C36.4974 56.272 36.5024 49.8176 36.505 43.3631C38.5721 42.6643 40.6669 42.1097 42.8702 42.1148Z" fill="#FCFCFE"/>
<path d="M138.13 42.1275C138.127 51.7268 138.125 61.3287 138.125 70.9281C138.125 71.0851 138.145 71.2421 138.155 71.3991C136.653 73.6806 135.039 75.881 133.383 78.0485C133.373 74.8124 133.358 71.5764 133.355 68.3403C133.348 59.855 133.348 51.3698 133.343 42.8846C134.878 42.2515 136.471 41.9781 138.13 42.1275Z" fill="#009A9C"/>
<path d="M76.3931 99.9135C76.4006 92.0259 76.4082 84.1383 76.4132 76.2506C78.1224 78.5954 79.7887 80.968 81.2962 83.4495C81.2937 87.858 81.2912 92.2639 81.2886 96.6724C79.8391 98.0271 78.3039 99.2577 76.3931 99.9135Z" fill="#009A9C"/>
<path d="M104.592 76.2633C104.599 84.1459 104.607 92.031 104.614 99.9136C102.678 99.2881 101.173 98.0069 99.7038 96.6648C99.7013 92.2665 99.7013 87.8681 99.6987 83.4673C101.236 81.001 102.878 78.6081 104.592 76.2633Z" fill="#009A9C"/>
<path d="M144.508 62.7214C144.497 56.6569 144.49 50.5924 144.477 44.5254C144.477 44.1506 144.442 43.7758 144.422 43.3986C146.217 43.748 147.848 44.5051 149.408 45.4369C149.406 48.987 149.406 52.5371 149.403 56.0871C147.863 58.3686 146.232 60.5792 144.508 62.7214Z" fill="#009A9C"/>
<path d="M36.5076 43.363C36.5051 49.8175 36.5 56.2745 36.4975 62.7289C34.8489 60.6196 33.2279 58.4876 31.7305 56.2643C31.7305 52.6231 31.728 48.9793 31.7255 45.3381C33.238 44.4822 34.8161 43.7884 36.5076 43.363Z" fill="#009A9C"/>
<path d="M81.2887 96.6698C81.2912 92.2613 81.2937 87.8554 81.2963 83.4469C82.9323 85.7765 84.5835 88.0959 86.4288 90.266C86.6884 90.5698 86.6506 90.7775 86.4263 91.0737C84.886 93.102 83.255 95.0416 81.2887 96.6698Z" fill="#FCFCFE"/>
<path d="M99.7013 83.4697C99.7038 87.8681 99.7038 92.2664 99.7064 96.6673C97.735 95.0543 96.1292 93.1071 94.5864 91.094C94.3545 90.7902 94.3469 90.5445 94.5915 90.2635C96.4418 88.1112 98.0753 85.7917 99.7013 83.4697Z" fill="#FCFCFE"/>
<path d="M31.7254 45.3381C31.7279 48.9819 31.7279 52.6231 31.7304 56.2644C30.0137 53.9702 28.3071 51.666 26.5702 49.387C26.2626 48.9819 26.4391 48.7971 26.734 48.5717C28.3146 47.3689 29.923 46.2041 31.7254 45.3381Z" fill="#FCFCFE"/>
<path d="M149.406 56.0897C149.408 52.5396 149.408 48.9895 149.411 45.4395C151.213 46.2649 152.791 47.4348 154.347 48.6426C154.679 48.9009 154.657 49.1009 154.427 49.4099C152.746 51.6306 151.077 53.8614 149.406 56.0897Z" fill="#FCFCFE"/>
<path d="M111 13.0761C110.955 13.0963 110.917 13.1191 110.874 13.1267C110.859 13.1293 110.836 13.0913 110.816 13.071C110.856 13.0533 110.894 13.028 110.937 13.0204C110.955 13.0179 110.977 13.0558 111 13.0761Z" fill="#0F0F38"/>
</g>
<defs>
<clipPath id="clip0">
<rect width="181" height="102" fill="white"/>
</clipPath>
</defs>
</svg>
