<svg width="100" height="100" viewBox="0 0 100 100" fill="none" xmlns="http://www.w3.org/2000/svg">
<path d="M67.5244 22.3846C67.2882 22.1463 66.9947 21.974 66.6777 21.874L47.5834 15.8787C39.9479 13.481 34.9802 17.6637 33.642 19.0061C32.8612 19.7869 32.2634 20.6103 31.957 21.3272L23.4513 41.3341C22.9641 42.4787 23.1301 44.0041 23.8938 45.5253C24.9874 47.6975 26.9574 49.2633 29.3126 49.8271C31.9485 50.4589 34.6823 49.6016 36.8226 47.4634C37.3821 46.9039 37.8587 46.2869 38.1395 45.7636L40.9989 40.4597C41.469 39.5811 42.152 38.6705 42.871 37.9514C45.324 35.4963 46.4899 36.6196 46.9856 37.0962C51.264 41.2256 73.6941 63.7515 73.6941 63.7515C74.4919 64.5493 74.326 66.062 73.3282 67.0576C72.3325 68.0512 70.8177 68.2214 70.0221 67.4278L63.7204 61.1283C62.9077 60.3135 61.5972 60.3135 60.7845 61.1283C59.9718 61.9346 59.9718 63.2515 60.7845 64.0621L67.0861 70.3659C67.8818 71.1594 67.7159 72.6721 66.7202 73.6656C65.7245 74.6634 64.2076 74.8293 63.4162 74.0358L57.1125 67.7363C56.2998 66.9236 54.985 66.9236 54.1765 67.7363C53.3638 68.5426 53.3638 69.8595 54.1765 70.6722L60.4782 76.9738C61.2738 77.7695 61.1015 79.2822 60.108 80.2778C59.1144 81.2714 57.6018 81.4416 56.804 80.6438L50.5024 74.3443C49.6939 73.5337 48.377 73.5337 47.5664 74.3443C46.758 75.1548 46.758 76.4718 47.5664 77.2781L53.868 83.5818C54.6658 84.3796 54.4957 85.8923 53.5021 86.888C52.5022 87.8836 50.9895 88.0517 50.196 87.256L42.5243 79.5779C43.6199 77.9312 43.3221 75.5421 41.6967 73.9103C39.8755 72.0913 37.0736 71.9232 35.4525 73.5486C37.0736 71.9253 36.9141 69.1277 35.0887 67.3044C33.2633 65.4833 30.4678 65.3152 28.8466 66.9364C30.4678 65.3152 30.304 62.5197 28.4765 60.6986C26.6553 58.8732 23.8598 58.7072 22.2344 60.3284C23.8598 58.7072 23.6917 55.9117 21.8685 54.0842C20.1622 52.3779 17.6199 52.146 15.9668 53.4459L3.5444 41.0235C2.73382 40.2108 1.41691 40.2108 0.606335 41.0235C-0.202112 41.832 -0.202112 43.1489 0.606335 43.9616L12.9968 56.35L9.32266 60.0241C7.70151 61.6432 7.86533 64.4387 9.69284 66.2662C11.514 68.0873 14.3095 68.2554 15.9328 66.6321C14.3095 68.2554 14.4754 71.0488 16.3008 72.8742C18.122 74.6932 20.9196 74.8655 22.5429 73.2422C20.9196 74.8655 21.0834 77.6589 22.9088 79.4822C24.7342 81.3075 27.5297 81.4735 29.1509 79.8523C27.5297 81.4714 27.6935 84.2648 29.5189 86.0923C31.3422 87.9134 34.1356 88.0815 35.761 86.4582L39.6415 82.5798L47.2601 90.1962C49.6918 92.6279 53.8042 92.4577 56.438 89.8281C57.7209 88.5453 58.406 86.9071 58.5017 85.286C60.1229 85.1902 61.7632 84.503 63.0439 83.218C64.3289 81.9352 65.0182 80.297 65.1161 78.6758C66.7351 78.5801 68.369 77.895 69.6583 76.61C70.9411 75.325 71.6283 73.689 71.7219 72.0657C73.3452 71.9721 74.9834 71.2871 76.2684 69.9978C78.898 67.3682 79.0596 63.2494 76.6343 60.8219L73.4218 57.6073L86.6122 44.419C87.4228 43.6106 87.4228 42.2936 86.6122 41.4831L67.5244 22.3846Z" fill="#0F0F38"/>
<path d="M98.7858 27.0268L81.9765 10.2175C80.3554 8.59418 77.7237 8.59418 76.1004 10.2175L70.2243 16.0893C68.6031 17.7105 68.6031 20.3422 70.2243 21.9633L87.0357 38.7769C88.659 40.398 91.2907 40.398 92.9118 38.7769L98.7858 32.9029C100.405 31.2796 100.405 28.6479 98.7858 27.0268ZM89.9631 35.5878C88.0824 35.5878 86.5549 34.0624 86.5549 32.1795C86.5549 30.2967 88.0824 28.7692 89.9631 28.7692C91.846 28.7692 93.3735 30.2946 93.3735 32.1795C93.3714 34.0602 91.846 35.5878 89.9631 35.5878Z" fill="#009A9C"/>
</svg>
