<svg width="86" height="46" viewBox="0 0 86 46" fill="none" xmlns="http://www.w3.org/2000/svg">
<path d="M39.7113 33.3262C39.5463 33.319 39.5195 33.1762 39.453 33.0864C38.8368 32.2592 38.2408 31.4177 37.6106 30.6007C34.0469 25.9718 30.2463 21.5367 25.8562 17.5821C23.6365 15.5829 21.2185 13.8692 18.3996 12.7064C15.9216 11.6844 13.3407 11.0377 10.6601 10.7102C7.79307 10.3604 4.93029 10.2339 2.06322 10.6684C1.37619 10.7725 0.684882 10.8796 0 11.0958C0.092175 11.2264 0.155411 11.3222 0.225078 11.413C2.33653 14.1681 4.45119 16.9211 6.55836 19.6783C11.4897 26.1279 16.464 32.5469 21.4993 38.922C23.1209 40.9743 25.0437 42.7083 27.466 43.8936C29.5946 44.935 31.8625 45.5124 34.2452 45.6572C35.4852 45.7327 36.7339 45.7531 37.9557 45.4522C39.7424 45.0125 41.2086 44.066 42.4712 42.8185C42.7478 42.5451 42.8849 42.5349 43.17 42.8185C44.6438 44.2893 46.379 45.3441 48.5333 45.6378C50.1325 45.8561 51.7348 45.7429 53.3147 45.4787C57.3093 44.8106 60.6351 43 63.2406 40.0359C64.9898 38.0458 66.5557 35.9211 68.1805 33.8413C73.4206 27.1346 78.6113 20.3943 83.7742 13.6336C84.4087 12.8033 85.0411 11.972 85.6906 11.1193C84.0229 10.7031 82.3723 10.4715 80.7003 10.4175C78.308 10.34 75.9318 10.5552 73.5781 10.9397C68.2706 11.8068 63.6983 14.0365 59.8098 17.5984C55.2514 21.7744 51.2589 26.4002 47.5709 31.2759C47.0489 31.9654 46.543 32.6662 45.9557 33.4628C45.9557 33.2486 45.9578 33.1558 45.9557 33.063C45.8549 29.3042 45.991 25.5515 46.2504 21.8019C46.3276 20.6932 46.4144 19.5814 46.6566 18.4899C47.1346 16.3397 48.0585 14.3578 49.1861 12.4545C50.7391 9.83403 53.1399 8.35704 56.1946 7.75727C56.917 7.61548 57.6479 7.59406 58.4925 7.57876C56.7412 6.06709 54.7927 5.54484 52.5505 5.83453C54.2021 4.17495 55.1496 2.24813 55.3736 0C55.3307 0.00510011 55.2932 -0.00102002 55.2761 0.0132603C55.1539 0.115262 55.0328 0.219305 54.9159 0.327427C53.5011 1.64326 51.8645 2.62452 50.0167 3.29773C49.5119 3.48133 49.0628 3.58028 48.5709 3.25183C48.3276 3.08863 48.0039 3.0213 47.7059 2.94786C45.633 2.43785 43.5977 2.65614 41.6041 3.30385C37.8228 4.534 36.0147 7.92047 37.2183 11.4803C37.8378 13.3133 38.2783 15.1912 38.6385 17.0803C39.1486 19.7558 39.4498 22.4609 39.6213 25.1752C39.796 27.8843 39.7789 30.5966 39.7113 33.3262Z" fill="#FCFCFE"/>
<path d="M39.7117 33.3262C39.7803 30.5966 39.7964 27.8843 39.6238 25.1752C39.4513 22.4609 39.1512 19.7558 38.641 17.0803C38.2809 15.1912 37.8404 13.3143 37.2209 11.4803C36.0172 7.92047 37.8253 4.53502 41.6067 3.30385C43.6002 2.65512 45.6356 2.43785 47.7084 2.94786C48.0064 3.0213 48.3301 3.08863 48.5734 3.25183C49.0653 3.58028 49.5144 3.48133 50.0192 3.29773C51.8681 2.62452 53.5037 1.64326 54.9184 0.327427C55.0353 0.219305 55.1564 0.115262 55.2786 0.0132603C55.2968 -0.00204004 55.3343 0.00510011 55.3761 0C55.1521 2.24813 54.2046 4.17495 52.553 5.83453C54.7952 5.54484 56.7426 6.06709 58.495 7.57876C57.6505 7.59406 56.9195 7.61548 56.1971 7.75727C53.1425 8.35602 50.7416 9.83301 49.1886 12.4545C48.0611 14.3578 47.1372 16.3397 46.6591 18.4899C46.4169 19.5814 46.329 20.6932 46.2529 21.8019C45.9935 25.5515 45.8574 29.3052 45.9582 33.063C45.9603 33.1558 45.9582 33.2476 45.9582 33.4628C46.5455 32.6672 47.0514 31.9665 47.5734 31.2759C51.2615 26.3992 55.2528 21.7744 59.8123 17.5984C63.7008 14.0365 68.2731 11.8057 73.5807 10.9397C75.9354 10.5552 78.3105 10.34 80.7028 10.4175C82.3748 10.4715 84.0243 10.7041 85.6931 11.1193C85.0436 11.971 84.4112 12.8033 83.7767 13.6336C78.6138 20.3943 73.4231 27.1356 68.1831 33.8413C66.5582 35.9211 64.9923 38.0468 63.2431 40.0359C60.6376 43 57.3118 44.8106 53.3172 45.4787C51.7373 45.7429 50.135 45.8561 48.5359 45.6378C46.3815 45.3441 44.6463 44.2893 43.1726 42.8185C42.8885 42.5349 42.7503 42.5451 42.4738 42.8185C41.2112 44.066 39.7449 45.0125 37.9583 45.4522C36.7364 45.7531 35.4888 45.7327 34.2477 45.6572C31.8651 45.5124 29.5982 44.936 27.4685 43.8936C25.0452 42.7083 23.1224 40.9743 21.5018 38.922C16.4654 32.5469 11.4912 26.1279 6.56089 19.6783C4.45266 16.9211 2.33799 14.1681 0.226543 11.413C0.156876 11.3222 0.0936398 11.2264 0.00146484 11.0958C0.686346 10.8796 1.37766 10.7725 2.06468 10.6684C4.93068 10.2339 7.79454 10.3593 10.6616 10.7102C13.3422 11.0377 15.9231 11.6844 18.4011 12.7064C21.2199 13.8692 23.6379 15.5829 25.8576 17.5821C30.2477 21.5367 34.0483 25.9718 37.611 30.6007C38.2401 31.4187 38.8371 32.2592 39.4534 33.0864C39.5199 33.1752 39.5467 33.319 39.7117 33.3262ZM15.0206 20.3362C14.1685 20.7248 13.4065 21.2471 12.6573 21.7877C12.518 21.8887 12.4344 21.9713 12.5801 22.1528C13.4022 23.1749 14.2103 24.2082 15.0228 25.2374C15.7323 26.235 16.4986 27.1907 17.28 28.1373C18.2832 29.4338 19.2864 30.7292 20.2896 32.0256C21.0291 33.0671 21.7998 34.0881 22.6122 35.0796C23.5361 36.3199 24.5136 37.5205 25.5618 38.669C26.2745 39.5616 27.0087 40.4377 27.8726 41.2048C28.7676 42.1391 29.7547 42.9705 30.8833 43.6437C31.5907 44.1608 32.3474 44.5872 33.2145 44.8177C34.1994 45.1696 35.1834 45.191 36.1683 44.8167C37.0729 44.5219 37.7996 43.9711 38.4866 43.3621C39.417 42.6308 40.1897 41.7617 40.9186 40.8529C41.0257 40.7193 41.0429 40.6265 40.9196 40.4898C40.0461 39.5167 39.2637 38.4762 38.4899 37.4307C37.776 36.3179 36.9872 35.253 36.178 34.2013C35.2423 32.8529 34.2595 31.537 33.2295 30.2518C32.4963 29.2797 31.7397 28.325 30.909 27.4253C29.9562 26.2584 28.9658 25.1231 27.8983 24.0491C27.1931 23.1943 26.4042 22.4119 25.5972 21.6459C25.3721 21.4225 25.1599 21.1848 24.9198 20.9767C24.2017 20.3545 23.579 19.615 22.6336 19.2672C21.8909 18.9418 21.1085 18.8398 20.2982 18.8898C19.2553 18.8867 18.2639 19.1356 17.2853 19.4498C16.4847 19.6415 15.7366 19.9516 15.0206 20.3362ZM70.7339 25.1599C71.5249 24.1602 72.3148 23.1596 73.1101 22.163C73.2195 22.0253 73.2302 21.9356 73.0726 21.8193C72.3363 21.2766 71.5892 20.7523 70.7361 20.3821C69.9976 19.9639 69.2248 19.6242 68.3749 19.4681C67.4189 19.104 66.4274 18.901 65.3953 18.8969C64.6097 18.8296 63.8562 18.952 63.1284 19.2366C61.8648 19.7486 61.0545 20.7738 60.1113 21.6489C59.2839 22.4017 58.5133 23.2055 57.7952 24.0542C56.7576 25.115 55.778 26.2227 54.8391 27.3621C54.0042 28.2872 53.2228 29.2501 52.4779 30.2426C51.449 31.536 50.4522 32.8518 49.5176 34.2085C48.7063 35.2601 47.9282 36.3342 47.2025 37.4409C46.433 38.4834 45.6591 39.5228 44.7824 40.4888C44.6677 40.6152 44.6699 40.7254 44.7803 40.8611C45.5102 41.7628 46.2711 42.6369 47.2047 43.3601C47.8992 43.9609 48.613 44.5362 49.5294 44.8167C50.5316 45.2125 51.5326 45.1574 52.5337 44.8126C53.3922 44.5668 54.1478 44.1374 54.8606 43.6314C55.957 42.9654 56.912 42.1391 57.8102 41.2497C58.6515 40.4418 59.4372 39.5881 60.1349 38.6629C61.2185 37.5042 62.1992 36.2699 63.1477 35.0102C63.9323 34.0371 64.6965 33.0507 65.4082 32.0277C66.4103 30.7302 67.4135 29.4327 68.4156 28.1353C69.2313 27.1724 70.0041 26.1809 70.7339 25.1599ZM50.2818 9.97071C48.2658 9.98397 46.3247 9.95643 44.3869 10.1166C43.5927 10.1829 42.8017 10.2604 42.0375 10.496C41.4062 10.6908 41.059 11.0785 41.0279 11.7282C40.9861 12.5963 41.3237 13.35 41.7642 14.0722C42.6913 15.5941 43.9743 16.8222 45.3676 17.9544C45.9625 18.4379 45.9668 18.4328 46.1833 17.7168C47.0332 14.9178 48.2433 12.2913 50.2818 9.97071ZM52.5519 5.86615C52.5412 5.85697 52.5305 5.83963 52.5219 5.84167C52.5015 5.84473 52.4833 5.85595 52.4651 5.86411C52.4747 5.87329 52.4844 5.89063 52.4919 5.88859C52.5122 5.88553 52.5305 5.87431 52.5519 5.86615Z" fill="#0F0F38"/>
<path d="M27.8978 24.0502C28.9642 25.1243 29.9556 26.2595 30.9085 27.4264C30.9053 32.042 30.902 36.6576 30.8967 41.2722C30.8956 42.0627 30.887 42.8522 30.8828 43.6428C29.7542 42.9695 28.767 42.1382 27.8721 41.2039C27.8764 38.2387 27.8806 35.2745 27.8849 32.3093C27.8892 29.5563 27.8935 26.8032 27.8978 24.0502Z" fill="#FCFCFE"/>
<path d="M60.1128 21.6478C61.056 20.7726 61.8663 19.7475 63.1299 19.2355C63.1321 23.0412 63.1331 26.8479 63.1364 30.6536C63.1374 32.1051 63.1449 33.5566 63.1492 35.0091C62.2007 36.2678 61.22 37.503 60.1364 38.6618C60.1321 37.4908 60.1246 36.3198 60.1235 35.1499C60.1181 30.6495 60.116 26.1482 60.1128 21.6478Z" fill="#FCFCFE"/>
<path d="M54.8398 27.362C55.7798 26.2216 56.7584 25.1139 57.7969 24.0541C57.8012 24.2377 57.8098 24.4213 57.8098 24.6039C57.8109 30.1518 57.8109 35.7007 57.8119 41.2486C56.9138 42.1381 55.9588 42.9643 54.8624 43.6303C54.8581 43.4182 54.8506 43.207 54.8506 42.9949C54.8463 37.7836 54.8431 32.5723 54.8398 27.362Z" fill="#FCFCFE"/>
<path d="M25.5619 38.6691C24.5137 37.5205 23.5362 36.321 22.6123 35.0796C22.6155 31.8105 22.6177 28.5413 22.622 25.2721C22.6241 23.2708 22.6305 21.2706 22.6337 19.2693C23.5791 19.6171 24.2018 20.3566 24.9199 20.9788C25.16 21.1869 25.3722 21.4236 25.5962 21.648C25.5908 21.8448 25.5801 22.0427 25.5801 22.2396C25.579 27.5192 25.579 32.7978 25.579 38.0775C25.578 38.2743 25.5673 38.4712 25.5619 38.6691Z" fill="#FCFCFE"/>
<path d="M50.2828 9.9707C48.2453 12.2913 47.0341 14.9178 46.1853 17.7167C45.9677 18.4328 45.9645 18.4379 45.3696 17.9544C43.9763 16.8222 42.6933 15.5951 41.7662 14.0722C41.3257 13.35 40.9881 12.5952 41.0299 11.7282C41.061 11.0784 41.4082 10.6908 42.0395 10.496C42.8037 10.2604 43.5947 10.1829 44.3889 10.1166C46.3257 9.9554 48.2667 9.98294 50.2828 9.9707Z" fill="#FCFCFE"/>
<path d="M25.562 38.669C25.5674 38.4721 25.5781 38.2742 25.5781 38.0773C25.5792 32.7977 25.5792 27.5191 25.5792 22.2394C25.5792 22.0416 25.5899 21.8447 25.5952 21.6478C26.4023 22.4139 27.1911 23.1962 27.8964 24.051C27.8921 26.804 27.8878 29.5571 27.8846 32.3101C27.8803 35.2753 27.876 38.2395 27.8717 41.2047C27.0079 40.4367 26.2748 39.5615 25.562 38.669Z" fill="#009A9C"/>
<path d="M57.8109 41.2487C57.8109 35.7008 57.8098 30.1518 57.8088 24.6039C57.8088 24.4203 57.8002 24.2367 57.7959 24.0541C58.514 23.2055 59.2847 22.4017 60.1121 21.6489C60.1153 26.1493 60.1185 30.6496 60.1228 35.1499C60.1239 36.3209 60.1314 37.4919 60.1357 38.6619C59.4379 39.587 58.6533 40.4408 57.8109 41.2487Z" fill="#009A9C"/>
<path d="M52.534 44.8117C51.533 45.1565 50.5319 45.2115 49.5298 44.8158C49.5265 41.2794 49.5223 37.744 49.519 34.2075C50.4537 32.8509 51.4504 31.5351 52.4794 30.2417C52.5651 30.3386 52.5383 30.4559 52.5383 30.5661C52.5373 35.3153 52.5351 40.0635 52.534 44.8117Z" fill="#FCFCFE"/>
<path d="M33.2287 30.2527C34.2576 31.5379 35.2415 32.8537 36.1772 34.2022C36.174 37.7407 36.1708 41.2781 36.1675 44.8165C35.1836 45.1909 34.1986 45.1685 33.2136 44.8176C33.2136 41.6422 33.2126 38.4669 33.2147 35.2916C33.2169 33.6116 33.2244 31.9316 33.2287 30.2527Z" fill="#FCFCFE"/>
<path d="M52.5343 44.8117C52.5353 40.0635 52.5375 35.3153 52.5375 30.5671C52.5375 30.4569 52.5643 30.3396 52.4785 30.2427C53.2224 29.2502 54.0048 28.2863 54.8397 27.3622C54.8429 32.5735 54.8461 37.7848 54.8494 42.9961C54.8494 43.2082 54.8569 43.4194 54.8611 43.6315C54.1484 44.1364 53.3928 44.5659 52.5343 44.8117Z" fill="#009A9C"/>
<path d="M33.229 30.2527C33.2247 31.9317 33.2172 33.6117 33.2151 35.2906C33.2129 38.466 33.214 41.6413 33.214 44.8166C32.3469 44.5861 31.5902 44.1597 30.8828 43.6426C30.8871 42.8521 30.8957 42.0626 30.8967 41.272C30.901 36.6564 30.9042 32.0419 30.9085 27.4263C31.7392 28.3259 32.4969 29.2807 33.229 30.2527Z" fill="#009A9C"/>
<path d="M22.6331 19.2682C22.6288 21.2695 22.6234 23.2698 22.6213 25.271C22.617 28.5402 22.6149 31.8094 22.6117 35.0786C21.7992 34.0871 21.0286 33.0671 20.2891 32.0246C20.2923 27.6467 20.2944 23.2677 20.2976 18.8898C21.1079 18.8408 21.8903 18.9428 22.6331 19.2682Z" fill="#009A9C"/>
<path d="M68.416 28.1342C67.4139 29.4316 66.4107 30.7291 65.4086 32.0266C65.4032 31.9562 65.3936 31.8858 65.3936 31.8154C65.3936 27.5089 65.3957 23.2024 65.3968 18.8969C66.43 18.8999 67.4203 19.1029 68.3775 19.4681C68.3871 19.6364 68.4032 19.8047 68.4032 19.973C68.4075 22.6934 68.4118 25.4138 68.416 28.1342Z" fill="#FCFCFE"/>
<path d="M20.2975 18.8908C20.2943 23.2687 20.2921 27.6476 20.2889 32.0256C19.2857 30.7291 18.2825 29.4337 17.2793 28.1373C17.2814 25.2414 17.2825 22.3456 17.2847 19.4497C18.2632 19.1366 19.2546 18.8887 20.2975 18.8908Z" fill="#FCFCFE"/>
<path d="M65.3958 18.8969C65.3947 23.2034 65.3936 27.5099 65.3926 31.8154C65.3926 31.8858 65.4022 31.9562 65.4076 32.0266C64.6959 33.0497 63.9328 34.036 63.1482 35.0091C63.1439 33.5576 63.1364 32.1062 63.1353 30.6536C63.1321 26.8479 63.131 23.0412 63.1289 19.2355C63.8567 18.9519 64.6101 18.8295 65.3958 18.8969Z" fill="#009A9C"/>
<path d="M36.1675 44.8156C36.1707 41.2772 36.1739 37.7398 36.1771 34.2013C36.9863 35.2529 37.7752 36.3168 38.489 37.4307C38.4879 39.4075 38.4869 41.3843 38.4858 43.3611C37.7998 43.9711 37.0721 44.5219 36.1675 44.8156Z" fill="#009A9C"/>
<path d="M49.5183 34.2075C49.5215 37.7439 49.5258 41.2793 49.529 44.8158C48.6126 44.5352 47.8999 43.96 47.2043 43.3592C47.2032 41.3864 47.2032 39.4127 47.2021 37.44C47.9299 36.3332 48.707 35.2592 49.5183 34.2075Z" fill="#009A9C"/>
<path d="M68.4161 28.1344C68.4118 25.414 68.4086 22.6936 68.4022 19.9732C68.4022 19.8049 68.385 19.6366 68.3765 19.4683C69.2264 19.6253 69.9981 19.965 70.7376 20.3822C70.7366 21.9745 70.7366 23.5677 70.7355 25.16C70.0045 26.181 69.2318 27.1725 68.4161 28.1344Z" fill="#009A9C"/>
<path d="M17.2842 19.4508C17.2821 22.3466 17.281 25.2425 17.2789 28.1383C16.4986 27.1917 15.7312 26.236 15.0217 25.2384C15.0206 23.6043 15.0206 21.9713 15.0195 20.3372C15.7366 19.9516 16.4847 19.6415 17.2842 19.4508Z" fill="#009A9C"/>
<path d="M38.4863 43.3611C38.4874 41.3843 38.4885 39.4075 38.4895 37.4307C39.2634 38.4762 40.0458 39.5166 40.9193 40.4897C41.0426 40.6264 41.0244 40.7192 40.9182 40.8528C40.1894 41.7607 39.4177 42.6307 38.4863 43.3611Z" fill="#FCFCFE"/>
<path d="M47.2029 37.4399C47.2039 39.4127 47.2039 41.3864 47.205 43.3591C46.2725 42.6359 45.5116 41.7618 44.7806 40.8601C44.6702 40.7234 44.6681 40.6143 44.7827 40.4878C45.6595 39.5218 46.4333 38.4824 47.2029 37.4399Z" fill="#FCFCFE"/>
<path d="M15.0213 20.3362C15.0224 21.9703 15.0224 23.6043 15.0234 25.2374C14.211 24.2082 13.4029 23.1749 12.5808 22.1528C12.435 21.9713 12.5186 21.8876 12.658 21.7877C13.4071 21.2471 14.1692 20.7248 15.0213 20.3362Z" fill="#FCFCFE"/>
<path d="M71 24.7778C71.0011 23.1855 71.0011 21.5923 71.0021 20C71.8553 20.3703 72.6024 20.8946 73.3387 21.4372C73.4962 21.5535 73.4855 21.6433 73.3762 21.781C72.5809 22.7775 71.7921 23.7782 71 24.7778Z" fill="#FCFCFE"/>
<path d="M52.0859 10.0241C52.0647 10.0331 52.0467 10.043 52.0265 10.046C52.0191 10.047 52.0085 10.0301 52 10.0221C52.0191 10.0141 52.0371 10.0032 52.0562 10.0002C52.0636 9.99818 52.0753 10.0141 52.0859 10.0241Z" fill="#FCFCFE"/>
</svg>
