<svg width="100" height="100" viewBox="0 0 100 100" fill="none" xmlns="http://www.w3.org/2000/svg">
<path d="M90.7182 16.7596C90.7182 7.50362 83.214 0 73.9596 0C69.9076 0 66.1963 1.43924 63.2977 3.83407C64.5933 8.25114 67.1115 12.6799 70.7852 16.5307C75.6784 21.6517 81.9714 24.9737 88.0694 25.7695C89.7391 23.1663 90.7182 20.0819 90.7182 16.7596Z" fill="#0F0F38"/>
<path d="M69.3069 17.947C65.6746 14.1421 63.1296 9.78865 61.675 5.38879C59.5852 7.64465 58.1285 10.472 57.533 13.605C59.1159 18.0979 61.9539 22.3802 65.7956 25.9543C69.39 29.2964 73.5474 31.7183 77.8127 33.0504C81.3496 32.2197 84.4497 30.2791 86.7266 27.6016C80.5121 26.5131 74.2269 23.0988 69.3069 17.947Z" fill="#009A9C"/>
<path d="M30.7067 88.8177C27.5607 91.429 17.2143 90.6608 11.4258 89.5702C10.3182 89.3496 9.24763 90.0893 9.03513 91.2013C8.82837 92.3121 9.55504 93.3839 10.666 93.592C11.6138 93.7714 16.6715 94.6829 21.969 94.6829C26.293 94.6829 30.7807 94.0759 33.3182 91.9723C34.8104 90.7435 35.5931 89.074 35.5931 87.1608C35.5931 81.6783 32.25 79.0914 29.5647 77.0026C27.0231 75.0318 25.4589 73.6851 25.3502 70.9424C25.2149 67.4567 26.5743 65.1078 27.8767 63.6649C30.9179 66.3585 36.7674 65.7369 41.0682 62.2011L47.2246 57.1481C48.0256 58.1595 49.1467 58.9034 50.4548 59.175V91.2128C41.076 91.5481 33.9004 93.3714 33.9004 95.5783C33.9004 98.0211 42.6832 100 53.5252 100C64.3667 100 73.15 98.0211 73.15 95.5783C73.15 93.3714 65.9739 91.5481 56.5951 91.2128V56.1803C56.9734 55.4249 57.2031 54.5888 57.2031 53.6934C57.2031 52.305 56.6796 51.0553 55.8439 50.0763L75.1311 34.2519C71.3132 32.7498 67.6353 30.4569 64.4014 27.4528C60.9274 24.2184 58.2234 20.4234 56.4501 16.4081L40.7897 35.6682C39.2637 35.0177 37.4279 35.3245 36.2215 36.5998C34.8542 38.0349 34.7332 40.2065 35.8306 41.7688L28.7507 50.4757C26.372 53.4027 25.4123 56.9685 25.903 59.8712C23.7762 61.7613 21.038 65.3359 21.2606 71.1002C21.4497 75.8898 24.555 78.2982 27.0533 80.2354C29.5357 82.1623 31.4998 83.6855 31.4998 87.1589C31.4993 87.8629 31.2636 88.3581 30.7067 88.8177Z" fill="#0F0F38"/>
</svg>
