<svg width="100" height="100" viewBox="0 0 100 100" fill="none" xmlns="http://www.w3.org/2000/svg">
<path d="M31.1171 38.0564C27.6906 34.7031 23.1166 32.8574 18.2342 32.8574C18.2224 32.8574 18.2115 32.8574 18.1996 32.8574C8.14649 32.8753 -0.0177444 41.0689 2.89643e-05 51.1222C0.0138961 58.9268 11.8008 76.5106 18.2834 85.2959C24.7343 76.4043 36.4779 58.5987 36.464 50.7894C36.4552 45.9442 34.5566 41.4226 31.1171 38.0564ZM18.2414 57.33C15.2933 57.3352 12.8992 54.9495 12.8941 52.0015C12.8889 49.0534 15.2744 46.6593 18.2226 46.6542C21.1707 46.6489 23.5648 49.0347 23.5699 51.9827C23.575 54.9307 21.1894 57.3249 18.2414 57.33Z" fill="#0F0F38"/>
<path d="M88.5257 4C88.5182 4 88.5108 4 88.5034 4C82.1759 4.01133 77.0366 9.16874 77.0477 15.4968C77.0558 19.8996 83.4651 30.1628 88.5528 37.1562C93.6206 30.0726 100.008 19.6818 100 15.2756C99.9885 8.94882 94.9504 4 88.5257 4ZM88.5342 21.4185C86.1288 21.4228 84.1751 19.4761 84.171 17.0705C84.1667 14.665 86.1134 12.7113 88.519 12.7072C90.9245 12.7029 92.8782 14.6496 92.8823 17.0552C92.8864 19.4607 90.9399 21.4142 88.5342 21.4185Z" fill="#0F0F38"/>
<path d="M67.3754 39.9023C65.3192 39.9072 63.6572 41.5765 63.6621 43.6304C63.667 45.6841 65.3313 47.3437 67.3828 47.3437C67.3854 47.3437 67.3875 47.3437 67.39 47.3437C69.4463 47.3388 71.1082 45.6695 71.1035 43.6156C71.0982 41.5591 69.4291 39.8972 67.3754 39.9023Z" fill="#009A9C"/>
<path d="M78.0313 39.9023C75.975 39.9072 74.3131 41.5765 74.318 43.6304C74.3229 45.6841 75.9871 47.3437 78.0387 47.3437C78.0412 47.3437 78.0434 47.3437 78.0459 47.3437C80.1022 47.3388 81.7641 45.6695 81.7594 43.6156C81.7541 41.5591 80.0852 39.8972 78.0313 39.9023Z" fill="#009A9C"/>
<path d="M57.9174 53.4257C57.5503 51.4042 55.6132 50.0648 53.5915 50.4317C51.5702 50.7989 50.228 52.736 50.5979 54.7577C50.9251 56.556 52.4905 57.8136 54.2538 57.8136C54.4749 57.8136 54.6977 57.7937 54.9235 57.7515C56.9452 57.3843 58.2842 55.4472 57.9174 53.4257Z" fill="#009A9C"/>
<path d="M60.7821 43.1343C59.5741 41.4699 57.2475 41.1029 55.5856 42.3109C55.5856 42.3083 55.5856 42.3083 55.5856 42.3083C53.9237 43.5164 53.5544 45.8429 54.7624 47.5074C55.4891 48.5095 56.6253 49.0404 57.7758 49.0404C58.5323 49.0404 59.2991 48.8097 59.9587 48.331C61.6206 47.1228 61.9901 44.7962 60.7821 43.1343Z" fill="#009A9C"/>
<path d="M61.6256 57.4586C59.6438 56.9204 57.5999 58.0936 57.0639 60.078C56.5256 62.0598 57.6991 64.1037 59.6834 64.6395C60.0084 64.7287 60.3358 64.7709 60.6583 64.7709C62.2954 64.7709 63.7985 63.6795 64.2475 62.0202C64.783 60.0383 63.61 57.9946 61.6256 57.4586Z" fill="#009A9C"/>
<path d="M70.5901 57.62C68.5339 57.6249 66.872 59.2942 66.8768 61.3481C66.8817 63.3995 68.546 65.0614 70.5975 65.0614C70.6001 65.0614 70.6024 65.0614 70.6048 65.0614C72.6587 65.0565 74.3229 63.3872 74.3182 61.3333C74.313 59.2768 72.6438 57.6151 70.5901 57.62Z" fill="#009A9C"/>
<path d="M69.2379 87.7647C67.1844 87.7672 65.5198 89.4365 65.5247 91.4902C65.5272 93.5441 67.1915 95.2059 69.2454 95.2059C69.2479 95.2059 69.2479 95.2059 69.2502 95.2059C71.3065 95.201 72.9684 93.5316 72.9659 91.4777C72.961 89.4217 71.292 87.7598 69.2379 87.7647Z" fill="#009A9C"/>
<path d="M80.5588 57.5977C78.5051 57.6026 76.8432 59.2719 76.848 61.3284C76.8506 63.3797 78.5172 65.0391 80.5687 65.0391C80.5713 65.0391 80.5736 65.0391 80.5759 65.0391C82.6298 65.0366 84.2916 63.3672 84.2867 61.311C84.2845 59.2571 82.6152 57.5952 80.5588 57.5977Z" fill="#009A9C"/>
<path d="M79.2096 87.745C77.1533 87.7499 75.4914 89.4192 75.4941 91.4731C75.499 93.527 77.1633 95.1864 79.2148 95.1864C79.2174 95.1864 79.2197 95.1864 79.2221 95.1864C81.276 95.1838 82.9402 93.5145 82.9355 91.4608C82.9324 89.4044 81.2633 87.7423 79.2096 87.745Z" fill="#009A9C"/>
<path d="M99.1669 71.0938C98.589 69.122 96.5228 67.9933 94.5509 68.5712C92.5765 69.1491 91.4478 71.2153 92.0282 73.1872C92.5021 74.8095 93.9855 75.8636 95.595 75.8636C95.9423 75.8636 96.2944 75.8139 96.6442 75.7122C98.6161 75.1319 99.7448 73.0657 99.1669 71.0938Z" fill="#009A9C"/>
<path d="M96.5226 78.458C94.6127 77.7039 92.4498 78.6416 91.6957 80.5539C90.9441 82.4639 91.8818 84.6244 93.7916 85.3783C94.2406 85.5569 94.7019 85.6387 95.1558 85.6387C96.6392 85.6387 98.0406 84.7457 98.6185 83.2823C99.373 81.3727 98.4351 79.2121 96.5226 78.458Z" fill="#009A9C"/>
<path d="M92.0059 87.4696C90.9592 85.701 88.677 85.1182 86.9087 86.1649C85.1401 87.2116 84.5573 89.4961 85.604 91.2621C86.3011 92.4354 87.5387 93.0877 88.8087 93.0877C89.4536 93.0877 90.1085 92.919 90.7038 92.5668C92.4698 91.5176 93.0551 89.2356 92.0059 87.4696Z" fill="#009A9C"/>
<path d="M92.1127 61.1372C90.4455 59.9366 88.1189 60.3138 86.9185 61.9805C85.7156 63.6473 86.0951 65.9716 87.7619 67.1747C88.4189 67.6485 89.1806 67.8766 89.9322 67.8766C91.0879 67.8766 92.2265 67.3409 92.9556 66.3313C94.1564 64.6645 93.7793 62.3378 92.1127 61.1372Z" fill="#009A9C"/>
<path d="M49.298 87.7994C47.2441 87.8019 45.5798 89.4713 45.5847 91.5275C45.5873 93.5789 47.2515 95.2408 49.3029 95.2408C49.3054 95.2408 49.3078 95.2408 49.3103 95.2408C51.3665 95.2359 53.0285 93.5689 53.0236 91.5127C53.0208 89.4588 51.3519 87.7945 49.298 87.7994Z" fill="#009A9C"/>
<path d="M39.3267 87.8168C37.273 87.8217 35.6111 89.4886 35.6134 91.5449C35.6183 93.5962 37.2827 95.2582 39.3341 95.2582C39.3366 95.2582 39.339 95.2582 39.3415 95.2582C41.3952 95.2556 43.0597 93.5863 43.0548 91.53C43.0523 89.4761 41.3829 87.8142 39.3267 87.8168Z" fill="#009A9C"/>
<path d="M29.5701 87.8168C27.5162 87.8217 25.8545 89.4886 25.8568 91.5449C25.8617 93.5962 27.5261 95.2582 29.5775 95.2582C29.58 95.2582 29.5824 95.2582 29.5849 95.2582C31.6388 95.2556 33.3031 93.5863 33.2982 91.53C33.2957 89.4761 31.6263 87.8142 29.5701 87.8168Z" fill="#009A9C"/>
<path d="M59.2666 87.7821C57.2131 87.7846 55.5512 89.4539 55.5533 91.5076C55.5586 93.5615 57.2227 95.2232 59.274 95.2232C59.2766 95.2232 59.2793 95.2232 59.2815 95.2232C61.3354 95.2184 62.9996 93.549 62.9947 91.4951C62.9924 89.4414 61.3229 87.7772 59.2666 87.7821Z" fill="#009A9C"/>
</svg>
