<svg width="22" height="47" viewBox="0 0 22 47" fill="none" xmlns="http://www.w3.org/2000/svg">
<circle cx="11" cy="12" r="8.75" stroke="#009A9C" stroke-width="2.5"/>
<path d="M11.0087 6.75C9.53437 6.75 8.57945 7.42067 7.82973 8.61674C7.69373 8.83372 7.73566 9.1312 7.92538 9.29092L8.72217 9.96171C8.91377 10.123 9.18638 10.0853 9.33638 9.87664C9.79906 9.23309 10.1423 8.86255 10.865 8.86255C11.4332 8.86255 12.1361 9.26858 12.1361 9.88037C12.1361 10.3429 11.7922 10.5804 11.2311 10.9296C10.5768 11.3369 9.71099 11.8438 9.71099 13.1118V13.3125C9.71099 13.5843 9.90946 13.8047 10.1543 13.8047H11.4929C11.7377 13.8047 11.9362 13.5843 11.9362 13.3125V13.1941C11.9362 12.3151 14.25 12.2785 14.25 9.9C14.25 8.10877 12.5765 6.75 11.0087 6.75ZM10.8236 14.4088C10.1181 14.4088 9.54411 15.0461 9.54411 15.8294C9.54411 16.6127 10.1181 17.25 10.8236 17.25C11.5291 17.25 12.1031 16.6127 12.1031 15.8294C12.1031 15.0461 11.5291 14.4088 10.8236 14.4088Z" fill="#009A9C"/>
</svg>
