<svg xmlns="http://www.w3.org/2000/svg" viewBox="0 0 402.59 81.21"><defs><style>.cls-1,.cls-2{fill:#003650;stroke:#cfdbdd;stroke-miterlimit:10;}.cls-1{stroke-width:3.47px;}.cls-2{stroke-width:2.82px;}.cls-3{fill:#5c89a0;}.cls-4{fill:#f79d5e;}</style></defs><g id="Layer_2" data-name="Layer 2"><g id="Layer_1-2" data-name="Layer 1"><path class="cls-1" d="M61.47,65.62A16.59,16.59,0,0,1,63,71a5.12,5.12,0,0,1-1.6,3.63c-1.07,1.12-15.9.58-16.29-.27Q43.27,70.2,37.85,57.3l-3.23.21H21.51V69.27a31.54,31.54,0,0,1-.15,3.59c-.11.79-16.81,4.28-17.64,1.71a17.24,17.24,0,0,1-.63-5.41V11.41a30.92,30.92,0,0,1,.16-3.59,8.13,8.13,0,0,1,1-2.76q1.46-2.8,8.11-2.81H34.83q9.15,0,17.79,6.66a24.38,24.38,0,0,1,6.87,8.74A27.43,27.43,0,0,1,62.2,29.93q0,11.76-7.81,19.36Q56.69,54.8,61.47,65.62Zm-40-26.53H34.83a10,10,0,0,0,6-2.29q3-2.29,3-6.87t-3-6.92a10.12,10.12,0,0,0-6.25-2.34H21.51Z"/><path class="cls-1" d="M90.29,60.11h32.05a31.42,31.42,0,0,1,3.59.15,8.59,8.59,0,0,1,2.76,1c.8,1,.47,15.82-1,16.65a17.24,17.24,0,0,1-5.41.63H81q-7.27,0-8.53-4a16.21,16.21,0,0,1-.63-5.3V11.41q0-5.31,2-7.23t7.49-1.93h41a28.8,28.8,0,0,1,3.59.16,8.13,8.13,0,0,1,2.76,1c1.07,1,.78,15.81-1,16.65a17.6,17.6,0,0,1-5.41.62H90.29V31.18H110.9a28.91,28.91,0,0,1,3.59.16,8.34,8.34,0,0,1,2.75,1c1.88,1,1.49,15.82-1.14,16.65a17.24,17.24,0,0,1-5.41.63H90.29Z"/><path class="cls-1" d="M222.44,5.17a8.06,8.06,0,0,1,1,2.81,30.06,30.06,0,0,1,.16,3.64V69.37a15.14,15.14,0,0,1-.71,5c-.64,1.79-16.84,1.08-17.19.18a20.54,20.54,0,0,1-.52-5.41V34.3q-2.59,3.23-7.6,10.25c-3.32,4.68-5.44,7.62-6.34,8.79l-1.88,2.45a9.6,9.6,0,0,1-2.55,1.87,8.71,8.71,0,0,1-8.63.11,9.39,9.39,0,0,1-2.76-2.14l-.83-1.14q-2.09-2.6-8.22-11.08T159.7,34.3V69.37a28.8,28.8,0,0,1-.16,3.59c-.1.8-17.9.78-18,0a33.79,33.79,0,0,1-.16-3.75V11.41a30.92,30.92,0,0,1,.16-3.59,8.13,8.13,0,0,1,1-2.76q1.56-2.7,8.11-2.7a15.37,15.37,0,0,1,4.84.67,6.19,6.19,0,0,1,2.66,1.41l.62.62,23.62,31Q200.07,12.66,206,5.17c1.18-1.88,4-2.81,8.38-2.81S221.47,3.29,222.44,5.17Z"/><path class="cls-2" d="M235,31a13.83,13.83,0,0,1,.15-2.37,4.41,4.41,0,0,1,1-1.82q1.45-1.86,8.12-1.86,7.27,0,8.63,2.54a9.25,9.25,0,0,1,.52,3.58V69.29a13.8,13.8,0,0,1-.15,2.41,4.72,4.72,0,0,1-1,1.79q-1.45,1.85-8.12,1.85c-4.85,0-7.7-.87-8.53-2.61a7.38,7.38,0,0,1-.62-3.51Z"/><path class="cls-1" d="M314.17,5.43c.66-1.22,16.42-.09,16.7.88a16.24,16.24,0,0,1,.63,5.31V69.37a30.69,30.69,0,0,1-.16,3.64,8.15,8.15,0,0,1-1,2.71q-1.46,2.81-8.12,2.81a17,17,0,0,1-5.61-.63,6,6,0,0,1-2.61-2q-23.4-31.22-30.8-40.79V69.37a31.23,31.23,0,0,1-.15,3.64c-.11.77-17.9.73-18-.1a33.05,33.05,0,0,1-.15-3.64V11.2a12.65,12.65,0,0,1,1-5.77,4.94,4.94,0,0,1,3-2.45,21.48,21.48,0,0,1,10,0,6.22,6.22,0,0,1,2.55,1.3,27.23,27.23,0,0,1,2.4,2.7q21.95,29.88,29.34,39.44V11.2A12.65,12.65,0,0,1,314.17,5.43Z"/><path class="cls-1" d="M361.36,60.11h32.05a31.54,31.54,0,0,1,3.59.15,8.67,8.67,0,0,1,2.76,1c.18,3.28,1.52,15.82-1,16.65a17.35,17.35,0,0,1-5.42.63H352.1q-7.29,0-8.54-4a16.55,16.55,0,0,1-.62-5.3V11.41q0-5.31,2-7.23t7.49-1.93h41a28.91,28.91,0,0,1,3.59.16,8.21,8.21,0,0,1,2.76,1c.89,2.26,1.27,15.37-1,16.65a17.72,17.72,0,0,1-5.42.62H361.36V31.18H382a28.8,28.8,0,0,1,3.59.16,8.31,8.31,0,0,1,2.76,1c1.87,1,1.49,15.82-1.15,16.65a17.24,17.24,0,0,1-5.41.63H361.36Z"/><rect class="cls-3" y="71.09" width="22.66" height="6.59"/><rect class="cls-3" x="42.49" y="71.09" width="22.66" height="6.59"/><rect class="cls-3" x="139.09" y="71.09" width="22.66" height="6.59"/><rect class="cls-3" x="203.26" y="71.09" width="22.66" height="6.59"/><rect class="cls-3" x="232.74" y="71.09" width="22.66" height="6.59"/><rect class="cls-3" x="262.57" y="71.09" width="22.66" height="6.59"/><rect class="cls-3" x="310.79" y="3.12" width="22.66" height="6.59"/><rect class="cls-3" x="232.74" y="22.14" width="22.66" height="6.59"/><rect class="cls-3" x="116.72" y="8.04" width="22.66" height="6.59" transform="translate(116.72 139.38) rotate(-90)"/><rect class="cls-3" x="116.72" y="66.58" width="22.66" height="6.59" transform="translate(58.17 197.93) rotate(-90)"/><rect class="cls-3" x="106.31" y="36.88" width="22.66" height="6.59" transform="translate(77.47 157.82) rotate(-90)"/><rect class="cls-3" x="387.96" y="8.04" width="22.66" height="6.59" transform="translate(387.96 410.63) rotate(-90)"/><rect class="cls-3" x="387.96" y="66.58" width="22.66" height="6.59" transform="translate(329.41 469.17) rotate(-90)"/><rect class="cls-3" x="377.56" y="36.88" width="22.66" height="6.59" transform="translate(348.71 429.07) rotate(-90)"/><circle class="cls-4" cx="244.07" cy="10.44" r="6.84"/><circle class="cls-4" cx="244.07" cy="10.44" r="6.84"/></g></g></svg>