<svg xmlns="http://www.w3.org/2000/svg" viewBox="0 0 1169.72 231.53"><defs><style>.cls-1{font-size:300px;fill:#003650;stroke:#cfdbdd;stroke-miterlimit:10;stroke-width:10px;font-family:FredokaOne-Regular, Fredoka One;letter-spacing:0.03em;}.cls-2{fill:#5c89a0;}.cls-3{fill:#cfdbdd;}.cls-4{fill:#f79d5e;}</style></defs><g id="Layer_1" data-name="Layer 1"><text class="cls-1" transform="translate(-3.08 226.39)">REMINE</text><rect class="cls-2" y="204.96" width="65.34" height="19"/><rect class="cls-2" x="122.5" y="204.96" width="65.34" height="19"/><rect class="cls-2" x="401" y="204.96" width="65.34" height="19"/><rect class="cls-2" x="586" y="204.96" width="65.34" height="19"/><rect class="cls-2" x="671" y="204.96" width="65.34" height="19"/><rect class="cls-2" x="757" y="204.96" width="65.34" height="19"/><rect class="cls-2" x="896" y="9" width="65.34" height="19"/><rect class="cls-2" x="671" y="63.84" width="65.34" height="19"/><rect class="cls-3" x="671" y="5.84" width="65.34" height="58.55"/><rect class="cls-2" x="336.5" y="23.17" width="65.34" height="19" transform="translate(336.5 401.84) rotate(-90)"/><rect class="cls-2" x="336.5" y="191.96" width="65.34" height="19" transform="translate(167.71 570.63) rotate(-90)"/><rect class="cls-2" x="306.5" y="106.34" width="65.34" height="19" transform="translate(223.33 455.01) rotate(-90)"/><rect class="cls-2" x="1118.5" y="23.17" width="65.34" height="19" transform="translate(1118.5 1183.84) rotate(-90)"/><rect class="cls-2" x="1118.5" y="191.96" width="65.34" height="19" transform="translate(949.71 1352.63) rotate(-90)"/><rect class="cls-2" x="1088.5" y="106.34" width="65.34" height="19" transform="translate(1005.33 1237.01) rotate(-90)"/><circle class="cls-4" cx="703.67" cy="30.1" r="19.71"/><circle class="cls-4" cx="703.67" cy="30.1" r="19.71"/></g></svg>